# AST/ASF file generated using VICON BodyLanguage
# -----------------------------------------------
:version 1.10
:name VICON
:units
  mass 1.0
  length 0.45
  angle deg
:documentation
   .ast/.asf automatically generated from VICON data using
   VICON BodyBuilder and BodyLanguage model FoxedUp or BRILLIANT.MOD
:root
   order TX TY TZ RX RY RZ
   axis XYZ
   position 0 0 0  
   orientation 0 0 0 
:bonedata
  begin
     id 1 
     name lhipjoint
     direction 0.570549 -0.739093 0.358072 
     length 2.41801 
     axis 0 0 0  XYZ
  end
  begin
     id 2 
     name lfemur
     direction 0.34202 -0.939693 0  
     length 7.44434  
     axis 0 0 20  XYZ
    dof rx ry rz
    limits (-160.0 20.0)
           (-70.0 70.0)
           (-60.0 70.0)
  end
  begin
     id 3 
     name ltibia
     direction 0.34202 -0.939693 0   
     length 7.60047   
     axis 0 0 20   XYZ
    dof rx
    limits (-10.0 170.0)
  end
  begin
     id 4 
     name lfoot
     direction 0.0909041 -0.249757 0.964032   
     length 2.03437   
     axis -90 7.62852e-016 20   XYZ
    dof rx rz
    limits (-45.0 90.0)
           (-70.0 20.0)
  end
  begin
     id 5 
     name ltoes
     direction 1.53547e-011 -4.2174e-011 1   
     length 1.02054   
     axis -90 7.62852e-016 20   XYZ
    dof rx
    limits (-90.0 20.0)
  end
  begin
     id 6 
     name rhipjoint
     direction -0.558096 -0.746754 0.361784   
     length 2.3932  
     axis 0 0 0  XYZ 
  end
  begin
     id 7 
     name rfemur
     direction -0.34202 -0.939693 0   
     length 7.3886   
     axis 0 0 -20   XYZ
    dof rx ry rz
    limits (-160.0 20.0)
           (-70.0 70.0)
           (-70.0 60.0)
  end
  begin
     id 8 
     name rtibia
     direction -0.34202 -0.939693 0   
     length 7.4839   
     axis 0 0 -20   XYZ
    dof rx
    limits (-10.0 170.0)
 end
 begin
     id 9 
     name rfoot
     direction -0.114619 -0.314914 0.942174   
     length 2.25127  
     axis -90 -7.62852e-016 -20   XYZ
    dof rx rz
    limits (-45.0 90.0)
           (-20.0 70.0)
  end
  begin
     id 10 
     name rtoes
     direction -1.53518e-011 -4.21881e-011 1   
     length 1.11821   
     axis -90 -7.62852e-016 -20   XYZ
    dof rx
    limits (-90.0 20.0)
  end
  begin
     id 11 
     name lowerback
     direction -0.00902269 0.996426 -0.0839821   
     length 2.25052   
     axis 0 0 0   XYZ
    dof rx ry rz
    limits (-20.0 45.0)
           (-30.0 30.0)
           (-30.0 30.0)
  end
  begin
     id 12 
     name upperback
     direction 0.0370973 0.999169 -0.0168941   
     length 2.24876   
     axis 0 0 0   XYZ
    dof rx ry rz
    limits (-20.0 45.0)
           (-30.0 30.0)
           (-30.0 30.0)
  end
  begin
     id 13 
     name thorax
     direction 0.0402726 0.998931 0.0227027   
     length 2.26408   
     axis 0 0 0   XYZ
    dof rx ry rz
    limits (-20.0 45.0)
           (-30.0 30.0)
           (-30.0 30.0)
  end
  begin
     id 14 
     name lowerneck
     direction -0.0733697 0.98508 0.155675   
     length 1.58204   
     axis 0 0 0   XYZ
    dof rx ry rz
    limits (-20.0 45.0)
           (-30.0 30.0)
           (-30.0 30.0)
  end
  begin
     id 15 
     name upperneck
     direction 0.0426554 0.993501 -0.105526   
     length 1.61222   
     axis 0 0 0   XYZ
    dof rx ry rz
    limits (-20.0 45.0)
           (-30.0 30.0)
           (-30.0 30.0)
  end
  begin
     id 16
     name head
     direction 0.020792 0.998384 -0.0528868  
     length 1.61527  
     axis 0 0 0   XYZ
    dof rx ry rz
    limits (-20.0 45.0)
           (-30.0 30.0)
           (-30.0 30.0)
  end
  begin
     id 17 
     name lclavicle
     direction 0.967109 0.155462 -0.201325  
     length 3.59357  
     axis 0 0 0   XYZ
    dof ry rz
    limits (-20.0 10.0)
           (0.0 20.0)
  end
  begin
     id 18 
     name lhumerus
     direction 1 -4.48968e-011 2.38195e-027   
     length 5.38154   
     axis 180 -30 -90   XYZ
    dof rx ry rz
    limits (-60.0 90.0)
           (-90.0 90.0)
           (-90.0 90.0)
  end
  begin
     id 19
     name lradius
     direction 1 -4.48961e-011 4.85371e-027   
     length 3.33312   
     axis 180 -30 -90   XYZ
    dof rx
    limits (-10.0 170.0)
  end
  begin
     id 20
     name lwrist
     direction 1 -4.48961e-011 4.76515e-027   
     length 1.66656   
     axis -3.27502e-015 90 90   XYZ
    dof ry
    limits (-180.0 0.0)
 end
  begin
     id 21 
     name lhand
     direction 1 -4.48951e-011 9.53074e-027   
     length 0.710789   
     axis -6.08098e-015 90 90   XYZ
    dof rx rz
    limits (-90.0 90.0)
           (-45.0 45.0)
  end
  begin
     id 22 
     name lfingers
     direction 1 -4.48953e-011 1.90613e-026   
     length 0.573057   
     axis -1.21619e-014 90 90   XYZ
    dof rx
    limits (0.0 90.0)
  end
  begin
     id 23
     name lthumb
     direction 0.707107 -6.34973e-011 0.707107   
     length 0.822798   
     axis -90 45 -9.86923e-015   XYZ
    dof rx rz
    limits (-45.0 45.0)
           (-45.0 45.0)
  end
  begin
     id 24 
     name rclavicle
     direction -0.9585 0.265289 -0.104398   
     length 3.42039  
     axis 0 0 0   XYZ 
    dof ry rz
    limits (-10.0 20.0)
           (-20.0 0.0)
  end
  begin
     id 25 
     name rhumerus
     direction -1 -4.48977e-011 2.21478e-027  
     length 5.16954   
     axis 180 30 90   XYZ
    dof rx ry rz
    limits (-90.0 60.0)
           (-90.0 90.0)
           (-90.0 90.0)
  end
  begin
     id 26 
     name rradius
     direction -1 -4.48967e-011 5.63677e-027   
     length 3.38287   
     axis 180 30 90   XYZ
    dof rx
    limits (-10.0 170.0)
  end
  begin
     id 27 
     name rwrist
     direction -1 -4.48967e-011 4.76501e-027   
     length 1.69144   
     axis -3.27502e-015 -90 -90   XYZ
    dof ry
    limits (-180.0 0.0)
  end
  begin
     id 28
     name rhand
     direction -1 -4.48902e-011 9.53292e-027   
     length 0.817967   
     axis -6.08098e-015 -90 -90   XYZ
    dof rx rz
    limits (-90.0 90.0)
           (-45.0 45.0)
  end
  begin
     id 29
     name rfingers
     direction -1 -4.49012e-011 1.90561e-026   
     length 0.659466   
     axis -1.21619e-014 -90 -90   XYZ
    dof rx
    limits (0.0 90.0)
  end
  begin
     id 30
     name rthumb
     direction -0.707107 -6.34944e-011 0.707107   
     length 0.946865   
     axis -90 -45 9.86923e-015   XYZ
    dof rx rz
    limits (-45.0 45.0)
           (-45.0 45.0)
  end
:hierarchy
  begin
    root lhipjoint rhipjoint lowerback
    lhipjoint lfemur
    lfemur ltibia
    ltibia lfoot
    lfoot ltoes
    rhipjoint rfemur
    rfemur rtibia
    rtibia rfoot
    rfoot rtoes
    lowerback upperback
    upperback thorax
    thorax lowerneck lclavicle rclavicle
    lowerneck upperneck
    upperneck head
    lclavicle lhumerus
    lhumerus lradius
    lradius lwrist
    lwrist lhand lthumb
    lhand lfingers
    rclavicle rhumerus
    rhumerus rradius
    rradius rwrist
    rwrist rhand rthumb
    rhand rfingers
  end

#!OML:ASF F:\twosubjects\two\wednesday\Session 1\Justin1.ASF
:FULLY-SPECIFIED
:DEGREES
148
root 13.3441 17.9576 8.77569 -1.01011 -3.96024 1.28315
lowerback 3.03108 2.5657 -2.23816
upperback 2.31869 3.369 -0.28724
thorax 0.570238 1.66078 0.870802
lowerneck -14.3205 -3.07698 -9.98616
upperneck 20.8675 -3.19511 5.78861
head 9.17928 -1.66565 3.27106
rclavicle 3.23025e-015 -6.95746e-016
rhumerus -56.0671 40.8838 -97.8695
rradius 59.4581
rwrist -19.9425
rhand -11.2564 20.047
rfingers 7.12502
rthumb 14.7735 -9.40649
lclavicle 3.23025e-015 -6.95746e-016
lhumerus -32.569 11.2501 76.6596
lradius 24.5385
lwrist -17.8776
lhand 4.11193 35.6911
lfingers 7.12502
lthumb 29.5226 63.3638
rfemur -11.1619 -3.19334 17.5944
rtibia 66.9113
rfoot 5.79556 -13.8865
rtoes 12.0827
lfemur -13.8492 2.05274 -24.0329
ltibia 27.3337
lfoot -11.3169 0.242501
ltoes -16.6056
149
root 13.3681 17.9608 8.96636 -1.44469 -3.60814 1.43497
lowerback 3.05148 2.38016 -2.18761
upperback 2.50209 3.12544 -0.30434
thorax 0.758361 1.53661 0.836382
lowerneck -14.407 -3.1061 -9.94405
upperneck 21.0716 -3.26509 5.87976
head 9.27243 -1.68703 3.2901
rclavicle 4.33288e-016 1.78658e-014
rhumerus -55.7779 41.0005 -97.6581
rradius 59.314
rwrist -19.7043
rhand -11.3731 20.2572
rfingers 7.12502
rthumb 14.6611 -9.20448
lclavicle 4.33288e-016 1.78658e-014
lhumerus -31.7305 10.0048 77.2906
lradius 25.2345
lwrist -16.7783
lhand 3.99187 36.2806
lfingers 7.12502
lthumb 29.4079 63.9735
rfemur -11.7456 -4.04508 17.1298
rtibia 67.5315
rfoot 4.24334 -14.154
rtoes 10.1166
lfemur -12.3766 1.84787 -24.4105
ltibia 27.0306
lfoot -12.0626 0.629976
ltoes -18.1237
150
root 13.3745 17.9694 9.14457 -1.43887 -3.61897 0.693473
lowerback 2.91042 2.22928 -1.51406
upperback 2.41558 2.93988 -0.0501332
thorax 0.773339 1.45112 0.729959
lowerneck -14.454 -3.02778 -9.69506
upperneck 21.4259 -3.19881 5.77513
head 9.39182 -1.65164 3.2257
rclavicle -2.19725e-014 3.45699e-015
rhumerus -55.9709 41.3197 -97.833
rradius 59.3236
rwrist -19.6831
rhand -11.4153 20.3714
rfingers 7.12502
rthumb 14.6204 -9.09319
lclavicle -2.19725e-014 3.45699e-015
lhumerus -31.1823 9.01556 77.6762
lradius 25.9057
lwrist -15.7628
lhand 3.00769 36.2105
lfingers 7.12502
lthumb 28.4679 64.0645
rfemur -12.9399 -4.27655 18.0417
rtibia 68.0002
rfoot 3.08118 -14.5267
rtoes 10.1857
lfemur -11.6453 1.91031 -23.649
ltibia 27.0429
lfoot -12.7403 0.860179
ltoes -17.4752
151
root 13.359 17.9815 9.29731 -1.16265 -3.72816 -0.359405
lowerback 2.97659 2.2295 -0.736977
upperback 2.07792 2.9533 0.340742
thorax 0.407639 1.46758 0.684359
lowerneck -14.482 -3.05305 -9.62072
upperneck 21.931 -3.24915 5.70885
head 9.57611 -1.68248 3.1917
rclavicle -3.35915e-015 4.8578e-015
rhumerus -56.4209 41.3011 -97.9832
rradius 59.5681
rwrist -20.055
rhand -11.5411 20.3079
rfingers 7.12502
rthumb 14.4992 -9.16549
lclavicle -3.35915e-015 4.8578e-015
lhumerus -30.776 8.19124 77.9883
lradius 26.6402
lwrist -15.3981
lhand 2.5656 36.0322
lfingers 7.12502
lthumb 28.0454 63.9561
rfemur -14.6454 -4.13242 19.6231
rtibia 68.337
rfoot 2.37387 -15.0476
rtoes 11.1521
lfemur -11.3754 1.88811 -22.4081
ltibia 26.9743
lfoot -13.029 0.865652
ltoes -14.8955
152
root 13.3461 17.9921 9.42779 -0.880294 -3.63919 -0.64961
lowerback 3.15743 2.27458 -0.625188
upperback 1.81583 3.01497 0.484998
thorax 0.0349199 1.50095 0.752738
lowerneck -14.3432 -3.08021 -9.70676
upperneck 22.0273 -3.32759 5.89386
head 9.5948 -1.70895 3.26392
rclavicle 1.80832e-014 7.95139e-016
rhumerus -56.4035 41.0221 -97.8221
rradius 59.7502
rwrist -20.4184
rhand -12.0511 20.2898
rfingers 7.12502
rthumb 14.0077 -9.21818
lclavicle 1.80832e-014 7.95139e-016
lhumerus -29.7946 6.99815 78.4319
lradius 26.8603
lwrist -14.9558
lhand 2.32934 35.6962
lfingers 7.12502
lthumb 27.8195 63.6569
rfemur -16.5358 -4.1686 20.2424
rtibia 68.5709
rfoot 1.77151 -15.1647
rtoes 10.608
lfemur -11.3778 1.6632 -22.029
ltibia 27.1423
lfoot -13.322 0.766574
ltoes -12.0707
153
root 13.3647 18.0101 9.62631 -1.28359 -2.77262 0.935197
lowerback 2.89358 2.04666 -2.04845
upperback 2.09303 2.68227 0.0993456
thorax 0.42692 1.32042 1.18003
lowerneck -14.3707 -3.12145 -9.77438
upperneck 21.9947 -3.39698 6.02552
head 9.59789 -1.73155 3.31232
rclavicle 4.78015e-015 -2.73329e-015
rhumerus -55.998 40.9326 -97.4186
rradius 59.8019
rwrist -20.3633
rhand -12.4366 20.4288
rfingers 7.12502
rthumb 13.6363 -9.10456
lclavicle 4.78015e-015 -2.73329e-015
lhumerus -28.741 6.11326 78.8542
lradius 27.444
lwrist -14.473
lhand 2.37379 35.5937
lfingers 7.12502
lthumb 27.862 63.5474
rfemur -17.042 -5.35946 18.0942
rtibia 68.518
rfoot 0.470656 -14.0525
rtoes 11.224
lfemur -10.3094 1.28556 -23.9357
ltibia 27.3041
lfoot -13.9153 0.352067
ltoes -7.43966
154
root 13.368 18.0232 9.79576 -1.31742 -2.60585 0.873751
lowerback 2.92353 1.94694 -2.05642
upperback 2.01252 2.54766 0.226596
thorax 0.326276 1.25402 1.31554
lowerneck -14.4278 -3.25678 -9.91928
upperneck 22.2079 -3.55908 6.05152
head 9.70263 -1.81817 3.32826
rclavicle 8.74031e-015 -1.36167e-014
rhumerus -55.9712 41.0114 -97.2811
rradius 59.8372
rwrist -20.2258
rhand -12.6365 20.3586
rfingers 7.12502
rthumb 13.4436 -9.18758
lclavicle 8.74031e-015 -1.36167e-014
lhumerus -28.4438 5.77347 79.0661
lradius 28.8567
lwrist -14.1291
lhand 2.80817 35.8458
lfingers 7.12502
lthumb 28.2772 63.7315
rfemur -18.0515 -5.59117 18.236
rtibia 68.2527
rfoot -0.513775 -13.6331
rtoes 11.7009
lfemur -9.6893 1.28596 -23.935
ltibia 27.3553
lfoot -14.1938 0.302346
ltoes -4.5709
155
root 13.3754 18.0272 9.96119 -1.4722 -2.45267 0.700392
lowerback 3.33936 1.8415 -1.88311
upperback 1.80272 2.40078 0.341975
thorax -0.113616 1.18735 1.32224
lowerneck -14.3867 -3.32796 -10.1791
upperneck 22.5362 -3.67345 6.30619
head 9.83169 -1.87032 3.45404
rclavicle -9.38636e-015 -2.38542e-015
rhumerus -56.2911 41.0632 -97.4221
rradius 59.9736
rwrist -20.4122
rhand -12.6471 19.9336
rfingers 7.12502
rthumb 13.4333 -9.61326
lclavicle -9.38636e-015 -2.38542e-015
lhumerus -28.2359 5.04601 79.2371
lradius 29.961
lwrist -13.3678
lhand 3.05643 36.6022
lfingers 7.12502
lthumb 28.5145 64.4485
rfemur -18.8957 -5.92697 18.5405
rtibia 67.7851
rfoot -1.28367 -13.3209
rtoes 9.73639
lfemur -8.95054 1.29416 -23.8304
ltibia 27.3783
lfoot -14.6714 0.45126
ltoes -4.37555
156
root 13.3829 18.0049 10.115 -1.54235 -2.12391 0.703911
lowerback 3.53052 1.75545 -1.85022
upperback 1.75223 2.2831 0.386994
thorax -0.268355 1.13038 1.347
lowerneck -14.5012 -3.40733 -10.2893
upperneck 22.7146 -3.78419 6.43562
head 9.93229 -1.91714 3.50713
rclavicle 1.50207e-014 -8.15017e-015
rhumerus -56.2908 41.1482 -97.337
rradius 60.0784
rwrist -20.7568
rhand -12.5286 19.7114
rfingers 7.12502
rthumb 13.5476 -9.82789
lclavicle 1.50207e-014 -8.15017e-015
lhumerus -27.5594 3.81093 79.5895
lradius 30.7001
lwrist -12.2049
lhand 2.74485 36.8784
lfingers 7.12502
lthumb 28.2167 64.7742
rfemur -19.9868 -6.31815 18.605
rtibia 67.321
rfoot -2.60097 -12.9568
rtoes 9.21738
lfemur -8.28093 0.920936 -23.8933
ltibia 27.4859
lfoot -14.9685 0.374536
ltoes 4.38841
157
root 13.378 17.99 10.2687 -1.48946 -1.85565 0.598697
lowerback 3.47443 1.6814 -1.87863
upperback 1.76485 2.18552 0.511197
thorax -0.22628 1.08057 1.49601
lowerneck -14.5062 -3.55085 -10.4042
upperneck 22.5573 -3.97648 6.53479
head 9.90065 -2.003 3.53328
rclavicle 1.03803e-014 3.97569e-016
rhumerus -56.0618 41.3479 -97.1399
rradius 60.09
rwrist -20.9208
rhand -12.5029 19.9151
rfingers 7.12502
rthumb 13.5723 -9.62248
lclavicle 1.03803e-014 3.97569e-016
lhumerus -26.8808 2.85915 79.9
lradius 31.6148
lwrist -11.2528
lhand 1.96056 35.9877
lfingers 7.12502
lthumb 27.4669 64.0048
rfemur -21.1654 -6.51568 18.8629
rtibia 66.6984
rfoot -4.03861 -12.5139
rtoes 8.8661
lfemur -7.76102 0.902803 -23.8416
ltibia 27.454
lfoot -15.8441 0.906337
ltoes -8.28412
